<?xml version="1.0" standalone="no"?>
<!DOCTYPE svg PUBLIC "-//W3C//DTD SVG 20010904//EN"
 "http://www.w3.org/TR/2001/REC-SVG-20010904/DTD/svg10.dtd">
<svg version="1.0" xmlns="http://www.w3.org/2000/svg"
 width="200.000000pt" height="200.000000pt" viewBox="0 0 200.000000 200.000000"
 preserveAspectRatio="xMidYMid meet">
<metadata>
Created by potrace 1.13, written by Peter Selinger 2001-2015
</metadata>
<g transform="translate(0.000000,200.000000) scale(0.100000,-0.100000)"
fill="#000000" stroke="none">
<path d="M170 1883 c-19 -8 -34 -23 -48 -50 -17 -32 -17 -1651 0 -1688 22 -48
52 -55 228 -55 l160 0 0 100 0 100 -100 0 -100 0 0 700 0 700 100 0 100 0 0
100 0 100 -162 -1 c-90 0 -170 -3 -178 -6z"/>
<path d="M1317 1460 l-69 -70 147 -147 148 -148 -527 -3 -526 -2 0 -100 0
-100 526 -2 526 -3 -146 -147 -147 -148 70 -72 71 -72 244 245 c247 247 265
270 252 325 -4 16 -103 123 -250 270 -134 134 -245 244 -247 244 -2 0 -35 -32
-72 -70z"/>
</g>
</svg>
